<?xml version="1.0" standalone="no"?>
<!DOCTYPE svg PUBLIC "-//W3C//DTD SVG 20010904//EN"
 "http://www.w3.org/TR/2001/REC-SVG-20010904/DTD/svg10.dtd">
<svg version="1.0" xmlns="http://www.w3.org/2000/svg"
 width="1870.000000pt" height="1870.000000pt" viewBox="0 0 1870.000000 1870.000000"
 preserveAspectRatio="xMidYMid meet">
<metadata>
Created by potrace 1.11, written by Peter Selinger 2001-2013
</metadata>
<g transform="translate(0.000000,1870.000000) scale(0.100000,-0.100000)"
fill="#000000" stroke="none">
<path d="M13100 18173 c-222 -13 -311 -88 -305 -258 2 -49 14 -161 21 -200 3
-11 7 -36 9 -55 3 -19 8 -46 11 -60 3 -14 8 -34 10 -45 2 -11 11 -51 20 -90 8
-38 17 -79 19 -90 2 -11 6 -30 9 -42 4 -13 8 -31 10 -40 2 -10 11 -45 20 -78
9 -33 19 -71 22 -85 3 -14 17 -65 31 -115 14 -49 27 -98 29 -107 8 -35 13 -54
39 -143 47 -167 116 -398 138 -465 6 -19 12 -37 12 -40 3 -17 103 -307 126
-368 89 -225 253 -502 384 -648 6 -6 35 -40 65 -74 263 -303 622 -556 1006
-710 43 -17 87 -36 96 -41 10 -5 26 -9 36 -9 10 0 22 -4 28 -9 11 -12 243 -70
304 -76 132 -15 182 -19 250 -19 68 0 155 7 220 18 14 2 45 7 70 11 113 18
346 117 452 192 43 31 47 32 63 17 43 -44 373 -558 483 -754 134 -240 193
-347 226 -410 21 -41 49 -95 61 -120 38 -72 158 -319 192 -395 71 -159 82
-183 107 -245 15 -36 31 -74 36 -85 10 -24 22 -59 20 -63 0 -1 6 -15 14 -30
41 -81 240 -718 277 -887 10 -48 9 -45 48 -210 17 -71 36 -155 42 -185 26
-129 29 -146 34 -175 3 -16 7 -41 9 -55 17 -92 27 -151 32 -190 12 -95 14
-106 17 -130 2 -14 7 -50 11 -80 4 -30 9 -71 12 -90 2 -20 6 -60 9 -90 6 -72
15 -166 20 -210 4 -31 11 -137 21 -315 5 -78 4 -713 0 -785 -2 -30 -7 -100
-10 -155 -3 -55 -8 -120 -11 -145 -2 -25 -7 -79 -11 -120 -11 -138 -20 -219
-31 -285 -3 -22 -7 -51 -9 -65 -5 -51 -15 -119 -19 -141 -3 -13 -8 -44 -11
-69 -3 -25 -10 -63 -14 -85 -8 -37 -11 -52 -26 -137 -3 -18 -12 -67 -21 -108
-8 -41 -17 -86 -19 -100 -3 -14 -7 -33 -10 -42 -3 -10 -8 -30 -10 -45 -13 -73
-99 -402 -150 -573 -64 -215 -212 -636 -269 -765 -7 -16 -30 -70 -50 -120
-228 -546 -582 -1174 -934 -1659 -47 -65 -93 -128 -101 -140 -13 -19 -93 -121
-168 -215 -37 -47 -134 -165 -191 -231 -51 -61 -113 -129 -249 -279 -159 -172
-553 -550 -574 -551 -5 0 -8 10 -9 23 -4 99 -1 3468 3 3472 9 9 82 15 248 20
91 3 176 7 190 9 114 21 164 34 251 66 76 29 217 96 229 111 3 3 15 12 28 18
26 14 27 15 127 96 251 205 425 499 469 795 3 19 9 53 12 75 9 53 10 286 1
350 -8 61 -24 145 -31 165 -3 8 -7 26 -10 40 -8 50 -80 214 -130 297 -29 47
-83 125 -121 174 -43 53 -1260 1277 -3085 3101 -1658 1657 -3038 3033 -3065
3058 -105 95 -187 147 -343 217 -76 35 -206 79 -257 88 -16 2 -41 7 -55 10
-162 34 -377 23 -580 -30 -208 -53 -381 -144 -539 -284 -41 -36 -695 -686
-1453 -1444 -758 -758 -1382 -1376 -1387 -1373 -4 3 -8 322 -8 708 0 387 -3
726 -7 753 -17 111 -95 213 -200 261 l-61 29 -295 -1 -295 0 -61 -28 c-65 -29
-129 -88 -162 -146 -45 -83 -45 -72 -45 -1419 0 -1089 -2 -1280 -14 -1304 -8
-16 -479 -493 -1046 -1061 -568 -567 -1059 -1063 -1093 -1101 -80 -92 -123
-154 -172 -245 -59 -113 -100 -229 -127 -365 -4 -22 -16 -54 -26 -71 -16 -27
-19 -52 -18 -201 1 -132 4 -177 16 -199 8 -16 24 -72 35 -124 11 -52 23 -99
27 -105 4 -5 13 -30 20 -55 17 -59 72 -165 137 -265 189 -287 460 -481 789
-564 106 -27 197 -37 343 -40 148 -2 201 -6 210 -16 10 -10 12 -3414 2 -3420
-16 -10 -369 337 -570 561 -47 52 -211 243 -236 273 -10 13 -26 32 -35 41 -69
74 -443 577 -509 686 -13 22 -26 41 -30 44 -3 3 -19 28 -36 55 -17 28 -65 104
-106 170 -41 66 -86 140 -100 165 -14 25 -36 63 -48 85 -172 297 -374 717
-505 1045 -21 52 -43 109 -50 125 -12 30 -37 96 -94 256 -17 47 -31 92 -31
100 0 8 -4 19 -9 24 -5 6 -16 35 -25 65 -8 30 -38 132 -66 225 -41 138 -120
438 -135 513 -2 10 -17 85 -34 167 -29 145 -51 259 -56 300 -2 11 -8 49 -14
85 -6 36 -13 82 -16 103 -3 20 -7 54 -10 75 -3 20 -8 57 -11 82 -2 25 -6 59
-9 75 -2 17 -7 62 -10 100 -4 39 -8 81 -10 95 -4 24 -10 97 -20 240 -27 391
-24 830 10 1275 8 106 23 261 30 310 3 17 7 53 10 80 6 59 16 132 21 160 2 11
6 40 9 65 3 25 8 56 12 70 3 14 7 32 8 40 2 16 18 112 20 120 0 3 5 28 10 55
4 28 9 55 11 60 1 6 5 26 8 45 4 19 9 42 11 50 2 8 6 26 9 40 59 333 292 1097
431 1415 8 17 36 84 63 150 107 255 290 628 432 875 23 41 51 89 60 106 10 18
41 69 69 114 28 45 51 86 51 91 0 5 4 9 8 9 5 0 14 11 20 25 38 83 423 628
448 633 8 2 29 -12 47 -31 18 -18 75 -80 127 -137 132 -143 135 -146 185 -175
56 -33 90 -40 191 -39 113 1 143 18 318 178 49 44 99 90 111 101 11 11 65 61
120 110 55 50 112 101 126 115 26 24 169 155 233 213 17 16 73 67 125 115 52
48 105 96 117 107 62 56 179 163 203 185 15 14 71 66 126 115 54 50 110 100
124 113 14 13 51 47 82 75 30 29 80 74 110 101 307 277 352 323 386 394 50
106 38 233 -32 342 l-35 55 68 65 c37 36 112 106 167 155 167 152 184 171 209
226 35 75 33 184 -6 249 -62 105 -138 151 -251 152 -101 1 -168 -37 -311 -178
-12 -11 -63 -58 -115 -105 -52 -46 -107 -97 -124 -112 l-30 -28 -46 49 c-25
26 -82 88 -126 137 -44 49 -99 108 -123 133 l-43 44 43 42 c24 23 88 82 142
131 241 218 265 248 274 347 17 197 -164 339 -354 277 -48 -15 -76 -38 -328
-270 -34 -31 -79 -72 -100 -91 l-40 -35 -59 59 c-83 84 -147 112 -257 112 -71
0 -94 -5 -140 -27 -30 -15 -67 -37 -81 -49 -31 -28 -204 -185 -233 -213 -12
-11 -69 -63 -126 -115 -58 -52 -123 -111 -145 -132 -22 -20 -52 -47 -66 -60
-28 -26 -206 -189 -249 -228 -15 -14 -62 -57 -106 -96 -43 -40 -93 -85 -110
-100 -16 -16 -75 -69 -129 -119 -132 -121 -130 -119 -236 -215 -51 -47 -107
-98 -125 -115 -63 -59 -120 -111 -219 -200 -188 -168 -241 -236 -261 -327 -14
-67 4 -184 39 -245 14 -24 70 -91 137 -162 25 -26 83 -90 130 -141 47 -52 104
-114 127 -139 48 -54 50 -48 -41 -163 -34 -43 -83 -109 -111 -148 -27 -39 -55
-77 -62 -84 -29 -33 -345 -511 -403 -611 -10 -16 -41 -70 -70 -120 -29 -49
-64 -110 -78 -135 -14 -25 -42 -75 -62 -111 -21 -36 -88 -169 -150 -295 -62
-126 -117 -236 -122 -244 -4 -8 -11 -22 -14 -30 -11 -27 -31 -74 -58 -133 -23
-51 -56 -129 -89 -207 -5 -14 -11 -29 -13 -35 -2 -9 -54 -140 -75 -190 -76
-180 -298 -884 -326 -1034 -2 -14 -6 -28 -8 -31 -2 -4 -7 -22 -10 -41 -3 -19
-11 -52 -16 -74 -9 -37 -33 -141 -44 -190 -2 -11 -11 -54 -19 -95 -8 -41 -17
-88 -21 -105 -3 -16 -8 -42 -10 -57 -2 -15 -9 -54 -15 -88 -6 -34 -13 -73 -15
-88 -2 -15 -6 -38 -9 -52 -3 -14 -8 -47 -10 -74 -3 -26 -7 -56 -10 -65 -4 -15
-8 -43 -21 -158 -3 -27 -8 -61 -10 -78 -5 -41 -16 -142 -20 -185 -1 -19 -6
-66 -9 -105 -36 -393 -42 -1130 -12 -1465 3 -25 7 -81 11 -125 3 -44 8 -93 10
-110 5 -39 16 -139 20 -190 2 -22 6 -53 9 -70 2 -16 8 -55 11 -85 3 -30 8 -62
10 -70 3 -8 7 -35 10 -60 3 -25 7 -56 9 -70 2 -14 7 -47 11 -75 3 -27 8 -57
11 -66 3 -9 7 -32 9 -50 3 -19 7 -45 10 -59 3 -14 8 -38 10 -55 4 -23 49 -237
70 -337 29 -134 113 -449 165 -618 23 -74 44 -144 47 -155 2 -11 9 -29 13 -40
5 -11 28 -76 51 -145 38 -113 141 -390 174 -465 7 -16 45 -106 85 -200 39 -93
127 -282 195 -420 107 -217 158 -312 310 -580 84 -148 439 -695 465 -715 3 -3
35 -45 70 -95 36 -49 70 -97 77 -105 6 -8 57 -72 111 -141 55 -69 108 -137
120 -150 157 -186 213 -251 247 -289 23 -25 72 -79 110 -120 77 -84 480 -488
565 -566 31 -27 121 -106 200 -173 80 -68 156 -133 170 -145 14 -12 40 -33 58
-46 49 -36 60 -66 63 -159 1 -46 5 -102 10 -125 4 -22 10 -54 12 -71 11 -63
46 -172 99 -309 54 -142 195 -360 311 -482 212 -224 525 -395 837 -457 41 -9
86 -19 100 -24 42 -13 8661 -16 8750 -2 181 28 328 67 450 121 122 54 163 77
265 143 264 174 451 408 598 750 27 61 44 124 71 252 26 122 33 175 35 249 1
15 19 32 59 57 31 20 71 49 88 64 17 15 78 66 134 113 57 47 108 90 114 95 6
6 31 28 56 49 195 170 581 547 735 720 44 49 89 99 100 110 11 12 58 66 104
121 47 55 87 102 90 105 4 3 40 48 81 100 41 52 77 97 80 100 4 3 67 86 141
185 573 767 1017 1605 1334 2515 57 165 154 475 170 543 2 9 6 21 9 25 3 5 7
20 10 35 2 14 14 59 25 100 11 40 22 84 24 98 3 13 10 44 17 69 7 25 14 52 15
60 26 114 67 311 70 330 2 14 7 36 10 50 5 25 32 179 41 235 2 17 6 41 9 55 2
14 7 45 10 70 3 25 8 56 10 70 2 14 7 44 10 68 3 23 7 59 10 80 14 113 21 177
30 272 2 25 7 81 10 125 21 231 30 464 29 760 0 260 -9 602 -18 675 -3 19 -7
73 -11 120 -3 47 -8 103 -10 125 -2 22 -9 84 -16 139 -6 54 -12 117 -15 140
-2 22 -6 55 -8 71 -3 17 -10 66 -17 110 -6 44 -13 89 -15 100 -3 11 -7 38 -9
60 -3 22 -7 51 -10 65 -12 58 -17 86 -20 110 -2 14 -17 93 -35 175 -39 189
-37 178 -56 254 -9 36 -17 72 -19 80 -2 9 -8 36 -15 61 -7 25 -14 52 -16 60
-2 8 -13 51 -24 95 -11 44 -23 88 -25 98 -2 10 -19 64 -37 120 -17 56 -33 104
-33 107 -1 3 -5 14 -9 25 -5 11 -21 54 -36 95 -25 66 -70 176 -102 250 -6 14
-14 34 -19 45 -30 74 -216 488 -255 570 -26 55 -48 102 -49 105 -2 9 -210 421
-260 515 -84 158 -233 420 -324 573 -14 24 -30 51 -36 60 -46 79 -200 319
-297 464 -65 98 -118 183 -118 189 0 5 24 42 53 82 66 89 128 181 158 233 47
80 106 201 119 239 7 22 16 45 20 50 11 15 58 193 65 245 4 25 9 61 12 80 8
46 8 220 0 295 -34 328 -212 696 -483 1000 -246 276 -497 473 -751 591 -41 19
-76 34 -79 34 -2 0 -26 9 -52 21 -26 12 -56 25 -67 29 -31 13 -207 71 -224 75
-9 2 -36 9 -61 16 -25 7 -54 14 -65 16 -11 2 -37 8 -58 14 -21 5 -52 12 -68
14 -17 2 -42 6 -57 9 -119 24 -242 32 -572 41 -242 6 -1490 13 -1570 8z m1121
-388 c796 -10 809 -11 999 -47 258 -48 491 -130 659 -230 34 -21 66 -38 70
-38 4 0 16 -8 27 -18 10 -9 44 -35 74 -57 279 -199 552 -549 652 -835 48 -140
60 -209 63 -376 3 -122 -3 -181 -26 -264 -6 -19 -11 -42 -13 -50 -14 -85 -176
-400 -206 -400 -8 0 -19 13 -155 185 l-87 110 7 105 c4 58 9 123 11 145 6 60
5 376 0 405 -3 14 -8 66 -11 115 -11 190 -19 238 -55 331 -26 67 -64 132 -106
180 -21 23 -104 78 -104 69 0 -4 -6 -3 -12 1 -42 26 -110 -1 -136 -53 -35 -68
-37 -97 -26 -318 10 -214 9 -494 -3 -506 -6 -6 -22 2 -45 24 -20 18 -62 56
-94 83 -33 27 -65 56 -72 64 -24 29 -50 86 -57 125 -4 22 -23 89 -42 150 -91
284 -242 600 -336 703 -35 37 -155 125 -175 128 -4 0 -18 4 -32 8 -14 4 -49 8
-78 10 -153 10 -195 -112 -104 -306 75 -159 81 -173 102 -226 11 -30 18 -57
15 -62 -3 -5 -32 9 -64 30 -87 58 -280 158 -411 214 -63 27 -142 61 -175 77
-171 78 -281 85 -411 23 -42 -20 -54 -32 -71 -71 -32 -71 -41 -115 -39 -180 3
-71 27 -125 81 -179 41 -40 241 -188 280 -205 11 -5 40 -22 65 -38 25 -16 89
-56 143 -88 54 -32 106 -63 115 -68 9 -6 26 -15 37 -22 45 -26 3 -31 -321 -37
-109 -2 -216 -9 -236 -15 -21 -7 -54 -27 -74 -46 -34 -32 -36 -38 -30 -76 7
-47 34 -90 80 -132 39 -35 181 -107 210 -107 13 0 26 -3 30 -7 17 -17 153 -26
401 -27 198 0 298 4 435 20 25 3 56 1 68 -3 29 -11 333 -314 329 -327 -7 -22
-558 2 -702 30 -63 12 -209 15 -260 4 -221 -46 -113 -281 178 -389 31 -11 59
-20 62 -20 3 0 20 -3 38 -7 17 -4 41 -8 52 -9 11 -1 36 -5 55 -8 19 -4 53 -9
75 -12 22 -2 49 -6 60 -8 21 -5 147 -16 250 -23 70 -4 435 -5 513 -1 29 1 64
-2 78 -8 30 -12 264 -303 258 -320 -3 -7 -21 -21 -40 -31 -19 -10 -34 -22 -34
-27 0 -4 -4 -6 -9 -3 -5 3 -14 0 -20 -8 -6 -7 -39 -26 -74 -40 -34 -15 -71
-31 -82 -36 -32 -14 -166 -48 -220 -56 -43 -6 -217 -8 -280 -3 -34 2 -177 30
-230 44 -305 82 -666 292 -906 526 -101 99 -279 314 -279 337 0 6 -3 12 -8 14
-13 6 -90 141 -137 243 -40 85 -189 509 -201 570 -2 11 -13 49 -23 85 -11 36
-36 124 -56 195 -19 72 -45 164 -56 205 -12 41 -23 82 -24 90 -2 8 -19 83 -38
165 -62 269 -79 394 -63 477 6 35 46 88 65 88 6 0 11 4 11 9 0 5 15 12 33 15
17 3 43 8 57 11 14 3 86 8 160 12 74 3 137 7 139 9 2 2 7 1 11 -1 4 -2 229 -7
501 -10z m-4766 -3245 c17 -6 32 -11 35 -11 43 4 206 -77 300 -148 48 -37
5556 -5542 6063 -6060 143 -147 211 -264 235 -406 16 -94 6 -262 -20 -345 -69
-223 -276 -422 -490 -469 -91 -21 -116 -23 -208 -21 -265 6 -950 4 -957 -3 -4
-5 -8 -1155 -9 -2555 -1 -1401 -4 -2569 -9 -2596 -42 -276 -230 -534 -480
-658 -55 -28 -163 -64 -210 -72 -16 -2 -48 -8 -70 -12 -51 -9 -8582 -10 -8655
0 -142 18 -262 66 -395 156 -175 119 -288 277 -347 485 l-23 80 -3 2579 c-1
1537 -6 2584 -11 2590 -8 10 -335 12 -1043 5 -79 0 -179 23 -265 61 -438 197
-553 771 -225 1120 13 14 55 66 92 115 79 104 5940 5967 6026 6028 29 21 56
37 62 37 6 0 12 4 14 8 9 21 209 88 292 98 28 4 53 8 54 9 9 8 221 -5 247 -15z"/>
<path d="M9158 11424 c-30 -9 -62 -30 -92 -60 -82 -82 -79 -45 -77 -959 0
-440 3 -2213 5 -3940 2 -2484 6 -3150 16 -3188 18 -69 89 -137 160 -153 91
-21 167 -3 227 54 78 74 86 109 86 350 0 115 4 175 11 181 8 7 64 -21 166 -80
205 -118 267 -134 366 -90 87 39 140 128 138 231 -2 94 -53 171 -144 219 -25
13 -52 30 -61 37 -8 8 -18 14 -22 14 -3 0 -47 25 -97 55 -50 30 -92 55 -94 55
-2 0 -33 17 -67 38 -35 21 -90 53 -121 72 -32 19 -61 41 -65 49 -4 9 -8 537
-8 1174 -2 939 1 1160 11 1164 8 3 355 -337 835 -817 l821 -821 -5 -52 c-3
-29 -13 -77 -22 -107 -96 -332 -137 -502 -132 -554 6 -69 11 -88 39 -129 58
-90 183 -127 290 -87 96 36 130 90 183 290 48 183 57 210 68 210 5 0 63 -54
130 -121 160 -160 180 -173 271 -174 119 0 200 55 238 162 21 62 17 136 -11
192 -13 24 -78 100 -147 169 -129 130 -136 144 -76 155 15 3 67 17 115 31 48
13 104 27 124 31 43 7 129 48 161 78 70 65 91 180 49 271 -57 123 -174 171
-317 131 -30 -9 -64 -18 -75 -20 -11 -3 -122 -32 -247 -67 -212 -57 -230 -61
-268 -49 -35 10 -152 123 -784 754 -408 408 -775 773 -814 811 -49 46 -69 72
-63 80 13 16 2317 15 2346 -1 12 -6 27 -24 35 -40 8 -15 41 -73 74 -128 32
-55 70 -120 84 -145 14 -25 45 -78 69 -118 24 -41 43 -75 43 -77 0 -9 53 -81
71 -98 41 -38 116 -64 177 -62 97 4 169 52 213 141 47 98 27 167 -118 412 -49
84 -62 121 -42 123 8 1 82 3 164 4 192 4 238 10 288 36 85 44 131 121 131 220
-1 80 -32 143 -96 189 -58 42 -97 50 -249 49 -74 0 -143 0 -154 1 -11 0 -37 0
-57 0 -20 -1 -39 4 -43 10 -3 6 22 59 56 118 34 59 80 141 102 182 37 71 39
79 34 147 -6 100 -40 156 -121 198 -101 51 -208 38 -285 -35 -28 -27 -166
-252 -281 -460 -59 -106 -84 -138 -118 -151 -13 -5 -222 -9 -465 -10 -434 0
-1407 0 -1701 0 -93 0 -154 5 -160 11 -8 8 224 245 799 819 446 445 825 818
843 828 l33 20 92 -24 c95 -25 115 -30 145 -37 57 -13 277 -71 332 -88 85 -25
136 -25 199 3 123 53 185 199 132 314 -22 50 -74 105 -121 128 -30 15 -249 79
-319 93 -32 7 -61 23 -61 34 0 5 60 69 134 142 106 106 136 142 148 178 19 59
14 141 -13 197 -48 100 -196 157 -304 117 -36 -13 -108 -75 -212 -183 -76 -78
-105 -103 -113 -95 -6 6 -31 81 -55 165 -52 186 -76 244 -117 286 -35 37 -106
64 -170 65 -79 3 -172 -60 -214 -145 -22 -43 -25 -60 -21 -111 5 -65 10 -89
27 -141 6 -18 12 -41 14 -51 2 -11 9 -39 16 -64 7 -25 14 -52 16 -60 2 -8 24
-89 49 -180 31 -109 43 -170 38 -183 -12 -25 -1644 -1657 -1658 -1657 -9 0
-12 290 -11 1170 1 1025 3 1171 16 1184 8 8 31 23 50 34 19 11 73 42 120 69
47 28 153 90 236 138 83 48 165 100 182 114 97 85 107 247 20 340 -45 48 -121
81 -188 81 -65 0 -106 -18 -291 -125 -72 -42 -134 -74 -137 -70 -4 4 -8 79 -8
168 -2 236 -12 287 -69 355 -56 67 -163 94 -257 66z"/>
<path d="M7690 11144 c-145 -43 -202 -200 -135 -369 123 -308 280 -684 300
-715 88 -139 285 -153 388 -28 45 54 66 111 61 164 -2 30 -168 474 -223 599
-5 11 -28 68 -51 126 -45 115 -81 167 -142 205 -47 30 -132 38 -198 18z"/>
<path d="M6398 10286 c-63 -19 -127 -72 -150 -122 -29 -66 -32 -157 -7 -214
26 -58 613 -647 674 -676 55 -25 151 -23 210 6 81 39 138 133 136 223 -2 96
-26 128 -354 453 -193 192 -316 307 -342 319 -47 22 -117 27 -167 11z"/>
<path d="M8467 9594 c-2 -3 -13 -6 -23 -8 -33 -7 -199 -73 -281 -112 -124 -60
-393 -228 -423 -263 -3 -3 -25 -22 -50 -41 -48 -37 -172 -153 -226 -210 -85
-92 -110 -122 -176 -208 -184 -244 -348 -578 -414 -847 -29 -116 -40 -173 -50
-245 -3 -25 -8 -53 -9 -62 -26 -135 -20 -554 10 -708 2 -14 7 -38 10 -55 4
-26 16 -78 40 -183 11 -47 76 -239 95 -279 11 -24 20 -46 20 -51 0 -13 129
-264 145 -282 8 -9 15 -20 15 -24 0 -13 127 -193 194 -276 78 -97 260 -278
361 -359 174 -140 433 -290 630 -365 39 -15 78 -31 87 -36 10 -6 31 -10 48
-10 24 0 30 4 31 23 3 68 3 4556 0 4574 -3 20 -24 37 -34 27z"/>
<path d="M5539 8999 c-116 -40 -180 -132 -172 -245 9 -123 61 -180 226 -249
135 -55 141 -58 152 -61 6 -1 71 -28 145 -59 74 -31 146 -61 160 -65 14 -5 54
-20 90 -35 159 -64 215 -71 293 -36 94 43 140 115 139 221 0 76 -18 122 -63
168 -41 42 -66 55 -270 137 -90 37 -182 75 -204 85 -38 17 -302 121 -355 141
-49 17 -86 17 -141 -2z"/>
<path d="M5251 7514 c-73 -21 -103 -45 -145 -112 -74 -119 -21 -283 114 -344
43 -20 60 -21 485 -21 l440 0 58 27 c80 38 133 114 140 197 8 105 -64 218
-159 249 -50 17 -878 20 -933 4z"/>
<path d="M6250 6335 c-39 -11 -82 -27 -165 -60 -11 -4 -24 -9 -30 -11 -5 -1
-32 -12 -60 -24 -47 -20 -65 -28 -117 -49 -105 -44 -160 -66 -198 -84 -25 -11
-61 -25 -80 -32 -170 -61 -224 -117 -236 -243 -8 -81 8 -132 58 -182 78 -78
167 -102 251 -66 20 8 37 13 37 11 0 -2 57 19 128 47 70 27 132 51 137 52 6 2
21 8 35 13 14 6 113 48 219 93 233 97 239 100 275 137 97 96 88 257 -20 352
-66 58 -137 72 -234 46z"/>
<path d="M6952 5299 c-18 -5 -47 -18 -64 -29 -49 -30 -607 -590 -635 -639 -51
-85 -34 -211 40 -293 35 -40 108 -69 172 -69 104 0 123 14 451 344 166 166
308 316 317 333 29 56 36 110 22 169 -18 80 -62 137 -130 170 -43 20 -129 27
-173 14z"/>
<path d="M7994 4618 c-3 -5 -9 -6 -14 -3 -5 3 -11 1 -15 -5 -3 -5 -13 -10 -21
-10 -23 0 -81 -48 -104 -84 -11 -18 -40 -82 -64 -142 -25 -60 -88 -215 -141
-344 -53 -129 -103 -251 -110 -270 -22 -55 -19 -163 5 -211 47 -91 132 -141
235 -135 54 2 73 8 113 36 76 51 82 63 228 425 36 88 71 174 79 192 8 17 15
34 15 38 0 4 7 21 15 38 35 78 72 196 74 242 6 129 -106 235 -251 239 -22 1
-42 -2 -44 -6z"/>
</g>
</svg>
